<svg xmlns="http://www.w3.org/2000/svg" xmlns:xlink="http://www.w3.org/1999/xlink" id="euSc2aVHG0K1" viewBox="0 0 900 800" shape-rendering="geometricPrecision" text-rendering="geometricPrecision">
<style><![CDATA[
#euSc2aVHG0K37_ts {animation: euSc2aVHG0K37_ts__ts 3000ms linear infinite normal forwards}@keyframes euSc2aVHG0K37_ts__ts { 0% {transform: translate(472.949997px,258.699997px) scale(0,0)} 33.333333% {transform: translate(472.949997px,258.699997px) scale(0,0)} 66.666667% {transform: translate(472.949997px,258.699997px) scale(1,1)} 100% {transform: translate(472.949997px,258.699997px) scale(1,1)}} #euSc2aVHG0K48_ts {animation: euSc2aVHG0K48_ts__ts 3000ms linear infinite normal forwards}@keyframes euSc2aVHG0K48_ts__ts { 0% {transform: translate(410.900009px,364.5px) scale(0,0)} 33.333333% {transform: translate(410.900009px,364.5px) scale(1,1)} 100% {transform: translate(410.900009px,364.5px) scale(1,1)}} #euSc2aVHG0K62_ts {animation: euSc2aVHG0K62_ts__ts 3000ms linear infinite normal forwards}@keyframes euSc2aVHG0K62_ts__ts { 0% {transform: translate(509.600021px,197.881317px) scale(0,0)} 66.666667% {transform: translate(509.600021px,197.881317px) scale(0,0)} 100% {transform: translate(509.600021px,197.881317px) scale(1,1)}} #euSc2aVHG0K113 {animation: euSc2aVHG0K113_c_o 3000ms linear infinite normal forwards}@keyframes euSc2aVHG0K113_c_o { 0% {opacity: 0} 66.666667% {opacity: 0} 100% {opacity: 1}} #euSc2aVHG0K114 {animation: euSc2aVHG0K114_c_o 3000ms linear infinite normal forwards}@keyframes euSc2aVHG0K114_c_o { 0% {opacity: 0} 33.333333% {opacity: 0} 66.666667% {opacity: 1} 100% {opacity: 1}} #euSc2aVHG0K115 {animation: euSc2aVHG0K115_c_o 3000ms linear infinite normal forwards}@keyframes euSc2aVHG0K115_c_o { 0% {opacity: 0} 33.333333% {opacity: 1} 100% {opacity: 1}} #euSc2aVHG0K116_tr {animation: euSc2aVHG0K116_tr__tr 3000ms linear infinite normal forwards}@keyframes euSc2aVHG0K116_tr__tr { 0% {transform: translate(320.699997px,422.050003px) rotate(64800deg)} 50% {transform: translate(320.699997px,422.050003px) rotate(64980deg)} 100% {transform: translate(320.699997px,422.050003px) rotate(64800deg)}} #euSc2aVHG0K146_to {animation: euSc2aVHG0K146_to__to 3000ms linear infinite normal forwards}@keyframes euSc2aVHG0K146_to__to { 0% {transform: translate(602px,554px)} 50% {transform: translate(610.362488px,546.499988px)} 100% {transform: translate(602px,554px)}} #euSc2aVHG0K168 {animation: euSc2aVHG0K168_c_o 3000ms linear infinite normal forwards}@keyframes euSc2aVHG0K168_c_o { 0% {opacity: 0} 66.666667% {opacity: 0} 100% {opacity: 1}} #euSc2aVHG0K169 {animation: euSc2aVHG0K169_c_o 3000ms linear infinite normal forwards}@keyframes euSc2aVHG0K169_c_o { 0% {opacity: 0} 66.666667% {opacity: 0} 100% {opacity: 1}} #euSc2aVHG0K170 {animation: euSc2aVHG0K170_c_o 3000ms linear infinite normal forwards}@keyframes euSc2aVHG0K170_c_o { 0% {opacity: 0} 66.666667% {opacity: 0} 100% {opacity: 1}} #euSc2aVHG0K171 {animation: euSc2aVHG0K171_c_o 3000ms linear infinite normal forwards}@keyframes euSc2aVHG0K171_c_o { 0% {opacity: 0} 33.333333% {opacity: 0} 66.666667% {opacity: 1} 100% {opacity: 1}} #euSc2aVHG0K172 {animation: euSc2aVHG0K172_c_o 3000ms linear infinite normal forwards}@keyframes euSc2aVHG0K172_c_o { 0% {opacity: 0} 33.333333% {opacity: 0} 66.666667% {opacity: 1} 100% {opacity: 1}} #euSc2aVHG0K173 {animation: euSc2aVHG0K173_c_o 3000ms linear infinite normal forwards}@keyframes euSc2aVHG0K173_c_o { 0% {opacity: 0} 33.333333% {opacity: 0} 66.666667% {opacity: 1} 100% {opacity: 1}} #euSc2aVHG0K174 {animation: euSc2aVHG0K174_c_o 3000ms linear infinite normal forwards}@keyframes euSc2aVHG0K174_c_o { 0% {opacity: 0} 33.333333% {opacity: 1} 100% {opacity: 1}} #euSc2aVHG0K175 {animation: euSc2aVHG0K175_c_o 3000ms linear infinite normal forwards}@keyframes euSc2aVHG0K175_c_o { 0% {opacity: 0} 33.333333% {opacity: 1} 100% {opacity: 1}} #euSc2aVHG0K176 {animation: euSc2aVHG0K176_c_o 3000ms linear infinite normal forwards}@keyframes euSc2aVHG0K176_c_o { 0% {opacity: 0} 33.333333% {opacity: 1} 100% {opacity: 1}} #euSc2aVHG0K179_to {animation: euSc2aVHG0K179_to__to 3000ms linear infinite normal forwards}@keyframes euSc2aVHG0K179_to__to { 0% {transform: translate(544.700012px,679.795227px)} 50% {transform: translate(544.700012px,679.795227px)} 100% {transform: translate(544.700012px,679.795227px)}}
]]></style>
<defs><rect id="euSc2aVHG0K2" width="397.5" height="275.8" rx="0" ry="0"/><linearGradient id="euSc2aVHG0K4-fill" x1="85.5789" y1="546.4566" x2="512.0146" y2="546.4566" spreadMethod="pad" gradientUnits="userSpaceOnUse" gradientTransform="translate(0 0)"><stop id="euSc2aVHG0K4-fill-0" offset="0%" stop-color="#c4c9e4"/><stop id="euSc2aVHG0K4-fill-1" offset="25%" stop-color="#c9cde6"/><stop id="euSc2aVHG0K4-fill-2" offset="52%" stop-color="#d6daec"/><stop id="euSc2aVHG0K4-fill-3" offset="82%" stop-color="#edeff7"/><stop id="euSc2aVHG0K4-fill-4" offset="100%" stop-color="#fff"/></linearGradient><linearGradient id="euSc2aVHG0K5-fill" x1="26.1621" y1="388.6877" x2="82.8926" y2="388.6877" spreadMethod="pad" gradientUnits="userSpaceOnUse" gradientTransform="translate(0 0)"><stop id="euSc2aVHG0K5-fill-0" offset="0%" stop-color="#cfd5f1"/><stop id="euSc2aVHG0K5-fill-1" offset="28%" stop-color="#e1e5f6"/><stop id="euSc2aVHG0K5-fill-2" offset="72%" stop-color="#f7f8fd"/><stop id="euSc2aVHG0K5-fill-3" offset="100%" stop-color="#fff"/></linearGradient><linearGradient id="euSc2aVHG0K9-fill" x1="118.4723" y1="26.6659" x2="0.044" y2="26.6659" spreadMethod="pad" gradientUnits="userSpaceOnUse" gradientTransform="translate(0 0)"><stop id="euSc2aVHG0K9-fill-0" offset="0%" stop-color="#fff"/><stop id="euSc2aVHG0K9-fill-1" offset="100%" stop-color="#c4cae9"/></linearGradient><linearGradient id="euSc2aVHG0K11-fill" x1="63.2897" y1="344.2039" x2="161.7233" y2="344.2039" spreadMethod="pad" gradientUnits="userSpaceOnUse" gradientTransform="translate(0 0)"><stop id="euSc2aVHG0K11-fill-0" offset="40%" stop-color="#ced3f8"/><stop id="euSc2aVHG0K11-fill-1" offset="55%" stop-color="#bec3e9"/><stop id="euSc2aVHG0K11-fill-2" offset="57%" stop-color="#bbc0e6"/></linearGradient><linearGradient id="euSc2aVHG0K12-fill" x1="-19.2674" y1="0.0499" x2="19.3555" y2="0.0499" spreadMethod="pad" gradientUnits="userSpaceOnUse" gradientTransform="translate(0 0)"><stop id="euSc2aVHG0K12-fill-0" offset="0%" stop-color="#a3a9d0"/><stop id="euSc2aVHG0K12-fill-1" offset="100%" stop-color="#bbc0e6"/></linearGradient><linearGradient id="euSc2aVHG0K13-fill" x1="118.4719" y1="30.9516" x2="0.0436" y2="30.9516" spreadMethod="pad" gradientUnits="userSpaceOnUse" gradientTransform="translate(0 0)"><stop id="euSc2aVHG0K13-fill-0" offset="0%" stop-color="#fff"/><stop id="euSc2aVHG0K13-fill-1" offset="100%" stop-color="#c4cae9"/></linearGradient><linearGradient id="euSc2aVHG0K21-fill" x1="447.2756" y1="199.2734" x2="291.3396" y2="199.2734" spreadMethod="pad" gradientUnits="userSpaceOnUse" gradientTransform="translate(0 0)"><stop id="euSc2aVHG0K21-fill-0" offset="0%" stop-color="#fff"/><stop id="euSc2aVHG0K21-fill-1" offset="100%" stop-color="#c4cae9"/></linearGradient><linearGradient id="euSc2aVHG0K22-fill" x1="280.6194" y1="170.4061" x2="340.3658" y2="170.4061" spreadMethod="pad" gradientUnits="userSpaceOnUse" gradientTransform="translate(0 0)"><stop id="euSc2aVHG0K22-fill-0" offset="0%" stop-color="#ced3f8"/><stop id="euSc2aVHG0K22-fill-1" offset="29%" stop-color="#bec3e9"/><stop id="euSc2aVHG0K22-fill-2" offset="33%" stop-color="#bbc0e6"/></linearGradient><linearGradient id="euSc2aVHG0K24-fill" x1="299.3733" y1="181.2592" x2="359.1957" y2="181.2592" spreadMethod="pad" gradientUnits="userSpaceOnUse" gradientTransform="translate(0 0)"><stop id="euSc2aVHG0K24-fill-0" offset="0%" stop-color="#ced3f8"/><stop id="euSc2aVHG0K24-fill-1" offset="29%" stop-color="#bec3e9"/><stop id="euSc2aVHG0K24-fill-2" offset="33%" stop-color="#bbc0e6"/></linearGradient><linearGradient id="euSc2aVHG0K26-fill" x1="318.1272" y1="192.1314" x2="377.9496" y2="192.1314" spreadMethod="pad" gradientUnits="userSpaceOnUse" gradientTransform="translate(0 0)"><stop id="euSc2aVHG0K26-fill-0" offset="0%" stop-color="#ced3f8"/><stop id="euSc2aVHG0K26-fill-1" offset="29%" stop-color="#bec3e9"/><stop id="euSc2aVHG0K26-fill-2" offset="33%" stop-color="#bbc0e6"/></linearGradient><linearGradient id="euSc2aVHG0K31-fill" x1="502.663" y1="364.39" x2="958.7373" y2="364.39" spreadMethod="pad" gradientUnits="userSpaceOnUse" gradientTransform="translate(0 0)"><stop id="euSc2aVHG0K31-fill-0" offset="0%" stop-color="#c4c9e4"/><stop id="euSc2aVHG0K31-fill-1" offset="32%" stop-color="#dcdfef"/><stop id="euSc2aVHG0K31-fill-2" offset="75%" stop-color="#f5f6fb"/><stop id="euSc2aVHG0K31-fill-3" offset="100%" stop-color="#fff"/></linearGradient><linearGradient id="euSc2aVHG0K35-fill" x1="310.1441" y1="360.183" x2="766.1552" y2="360.183" spreadMethod="pad" gradientUnits="userSpaceOnUse" gradientTransform="translate(0 0)"><stop id="euSc2aVHG0K35-fill-0" offset="0%" stop-color="#f6f6fb"/><stop id="euSc2aVHG0K35-fill-1" offset="0%" stop-color="#e4e6fa"/><stop id="euSc2aVHG0K35-fill-2" offset="12%" stop-color="#d8dbf9"/><stop id="euSc2aVHG0K35-fill-3" offset="21%" stop-color="#d0d5f8"/><stop id="euSc2aVHG0K35-fill-4" offset="40%" stop-color="#ced3f8"/><stop id="euSc2aVHG0K35-fill-5" offset="55%" stop-color="#bec3e9"/><stop id="euSc2aVHG0K35-fill-6" offset="57%" stop-color="#bbc0e6"/></linearGradient><linearGradient id="euSc2aVHG0K36-fill" x1="310.1441" y1="420.4426" x2="766.1552" y2="420.4426" spreadMethod="pad" gradientUnits="userSpaceOnUse" gradientTransform="translate(0 0)"><stop id="euSc2aVHG0K36-fill-0" offset="40%" stop-color="#f6f6fb"/><stop id="euSc2aVHG0K36-fill-1" offset="51%" stop-color="#e6e9f8"/><stop id="euSc2aVHG0K36-fill-2" offset="57%" stop-color="#dae0f5"/></linearGradient><linearGradient id="euSc2aVHG0K54-fill" x1="437.6798" y1="241.9005" x2="755.0929" y2="241.9005" spreadMethod="pad" gradientUnits="userSpaceOnUse" gradientTransform="translate(0 0)"><stop id="euSc2aVHG0K54-fill-0" offset="0%" stop-color="#d1d7f3"/><stop id="euSc2aVHG0K54-fill-1" offset="100%" stop-color="#f6f6fb"/></linearGradient><linearGradient id="euSc2aVHG0K56-fill" x1="584.0322" y1="177.2241" x2="532.3305" y2="87.6711" spreadMethod="pad" gradientUnits="userSpaceOnUse" gradientTransform="translate(0 0)"><stop id="euSc2aVHG0K56-fill-0" offset="0%" stop-color="#bbc0e6"/><stop id="euSc2aVHG0K56-fill-1" offset="35%" stop-color="#dadcf1"/><stop id="euSc2aVHG0K56-fill-2" offset="67%" stop-color="#eeeff8"/><stop id="euSc2aVHG0K56-fill-3" offset="87%" stop-color="#f6f6fb"/></linearGradient><linearGradient id="euSc2aVHG0K58-fill" x1="648.0819" y1="267.8392" x2="592.8252" y2="172.1287" spreadMethod="pad" gradientUnits="userSpaceOnUse" gradientTransform="translate(0 0)"><stop id="euSc2aVHG0K58-fill-0" offset="0%" stop-color="#bbc0e6"/><stop id="euSc2aVHG0K58-fill-1" offset="54%" stop-color="#e0e1ef"/><stop id="euSc2aVHG0K58-fill-2" offset="84%" stop-color="#efeff3"/></linearGradient><linearGradient id="euSc2aVHG0K60-fill" x1="575.3344" y1="172.9166" x2="629.5812" y2="172.9166" spreadMethod="pad" gradientUnits="userSpaceOnUse" gradientTransform="translate(0 0)"><stop id="euSc2aVHG0K60-fill-0" offset="0%" stop-color="#d1d7f3"/><stop id="euSc2aVHG0K60-fill-1" offset="100%" stop-color="#fff"/></linearGradient><linearGradient id="euSc2aVHG0K61-fill" x1="412.7203" y1="192.3802" x2="623.4734" y2="192.3802" spreadMethod="pad" gradientUnits="userSpaceOnUse" gradientTransform="translate(0 0)"><stop id="euSc2aVHG0K61-fill-0" offset="0%" stop-color="#807dfb"/><stop id="euSc2aVHG0K61-fill-1" offset="19%" stop-color="#7672ef"/><stop id="euSc2aVHG0K61-fill-2" offset="70%" stop-color="#5f5bd6"/><stop id="euSc2aVHG0K61-fill-3" offset="100%" stop-color="#5652cc"/></linearGradient><linearGradient id="euSc2aVHG0K62-fill" x1="444.5385" y1="197.8578" x2="574.6247" y2="197.8578" spreadMethod="pad" gradientUnits="userSpaceOnUse" gradientTransform="translate(0 0)"><stop id="euSc2aVHG0K62-fill-0" offset="0%" stop-color="#6b67e9"/><stop id="euSc2aVHG0K62-fill-1" offset="31%" stop-color="#5b57d2"/><stop id="euSc2aVHG0K62-fill-2" offset="74%" stop-color="#4945b9"/><stop id="euSc2aVHG0K62-fill-3" offset="100%" stop-color="#423eaf"/></linearGradient><linearGradient id="euSc2aVHG0K64-fill" x1="272.031" y1="255.2212" x2="441.8481" y2="549.3597" spreadMethod="pad" gradientUnits="userSpaceOnUse" gradientTransform="translate(0 0)"><stop id="euSc2aVHG0K64-fill-0" offset="58%" stop-color="#807cfb"/><stop id="euSc2aVHG0K64-fill-1" offset="61%" stop-color="#1f196f"/></linearGradient><linearGradient id="euSc2aVHG0K112-fill" x1="76.4174" y1="583.523" x2="421.4637" y2="583.523" spreadMethod="pad" gradientUnits="userSpaceOnUse" gradientTransform="translate(0 0)"><stop id="euSc2aVHG0K112-fill-0" offset="56%" stop-color="#5652cc"/><stop id="euSc2aVHG0K112-fill-1" offset="61%" stop-color="#1f196f"/></linearGradient><linearGradient id="euSc2aVHG0K145-fill" x1="515.8992" y1="585.9089" x2="632.9791" y2="585.9089" spreadMethod="pad" gradientUnits="userSpaceOnUse" gradientTransform="translate(0 0)"><stop id="euSc2aVHG0K145-fill-0" offset="0%" stop-color="#c4c9e4"/><stop id="euSc2aVHG0K145-fill-1" offset="24%" stop-color="#cacee7"/><stop id="euSc2aVHG0K145-fill-2" offset="54%" stop-color="#daddee"/><stop id="euSc2aVHG0K145-fill-3" offset="88%" stop-color="#f4f5fa"/><stop id="euSc2aVHG0K145-fill-4" offset="100%" stop-color="#fff"/></linearGradient><linearGradient id="euSc2aVHG0K151-fill" x1="493.4381" y1="595.7274" x2="610.5259" y2="595.7274" spreadMethod="pad" gradientUnits="userSpaceOnUse" gradientTransform="translate(0 0)"><stop id="euSc2aVHG0K151-fill-0" offset="43%" stop-color="#ced3f8"/><stop id="euSc2aVHG0K151-fill-1" offset="59%" stop-color="#bcc1e7"/><stop id="euSc2aVHG0K151-fill-2" offset="59%" stop-color="#bbc0e6"/></linearGradient><linearGradient id="euSc2aVHG0K154-fill" x1="544.1496" y1="569.5262" x2="570.9309" y2="569.5262" spreadMethod="pad" gradientUnits="userSpaceOnUse" gradientTransform="translate(0 0)"><stop id="euSc2aVHG0K154-fill-0" offset="0%" stop-color="#20196f"/><stop id="euSc2aVHG0K154-fill-1" offset="65%" stop-color="#2b2381"/><stop id="euSc2aVHG0K154-fill-2" offset="100%" stop-color="#322a8d"/></linearGradient><linearGradient id="euSc2aVHG0K155-fill" x1="329.4048" y1="697.506" x2="386.148" y2="697.506" spreadMethod="pad" gradientUnits="userSpaceOnUse" gradientTransform="translate(0 0)"><stop id="euSc2aVHG0K155-fill-0" offset="0%" stop-color="#cfd5f1"/><stop id="euSc2aVHG0K155-fill-1" offset="28%" stop-color="#e1e5f6"/><stop id="euSc2aVHG0K155-fill-2" offset="72%" stop-color="#f7f8fd"/><stop id="euSc2aVHG0K155-fill-3" offset="100%" stop-color="#fff"/></linearGradient><linearGradient id="euSc2aVHG0K159-fill" x1="839.1306" y1="471.1414" x2="895.8738" y2="471.1414" spreadMethod="pad" gradientUnits="userSpaceOnUse" gradientTransform="translate(0 0)"><stop id="euSc2aVHG0K159-fill-0" offset="0%" stop-color="#cfd5f1"/><stop id="euSc2aVHG0K159-fill-1" offset="28%" stop-color="#e1e5f6"/><stop id="euSc2aVHG0K159-fill-2" offset="72%" stop-color="#f7f8fd"/><stop id="euSc2aVHG0K159-fill-3" offset="100%" stop-color="#fff"/></linearGradient><linearGradient id="euSc2aVHG0K163-fill" x1="0.005195" y1="34.5344" x2="124.275023" y2="34.5344" spreadMethod="pad" gradientUnits="userSpaceOnUse" gradientTransform="translate(0 0)"><stop id="euSc2aVHG0K163-fill-0" offset="0%" stop-color="#dae0f5"/><stop id="euSc2aVHG0K163-fill-1" offset="100%" stop-color="#fff"/></linearGradient><linearGradient id="euSc2aVHG0K164-fill" x1="97.8352" y1="29.5561" x2="0.0362" y2="29.5561" spreadMethod="pad" gradientUnits="userSpaceOnUse" gradientTransform="translate(0 0)"><stop id="euSc2aVHG0K164-fill-0" offset="0%" stop-color="#fff"/><stop id="euSc2aVHG0K164-fill-1" offset="100%" stop-color="#c4cae9"/></linearGradient><linearGradient id="euSc2aVHG0K165-fill" x1="125.9804" y1="28.3842" x2="0.0126" y2="28.3842" spreadMethod="pad" gradientUnits="userSpaceOnUse" gradientTransform="translate(0 0)"><stop id="euSc2aVHG0K165-fill-0" offset="0%" stop-color="#fff"/><stop id="euSc2aVHG0K165-fill-1" offset="100%" stop-color="#c4cae9"/></linearGradient><linearGradient id="euSc2aVHG0K167-fill" x1="661.4247" y1="437.5935" x2="771.1857" y2="437.5935" spreadMethod="pad" gradientUnits="userSpaceOnUse" gradientTransform="translate(0 0)"><stop id="euSc2aVHG0K167-fill-0" offset="40%" stop-color="#ced3f8"/><stop id="euSc2aVHG0K167-fill-1" offset="55%" stop-color="#bec3e9"/><stop id="euSc2aVHG0K167-fill-2" offset="57%" stop-color="#bbc0e6"/></linearGradient><linearGradient id="euSc2aVHG0K178-fill" x1="487.5877" y1="698.4337" x2="539.9466" y2="607.756" spreadMethod="pad" gradientUnits="userSpaceOnUse" gradientTransform="translate(0 0)"><stop id="euSc2aVHG0K178-fill-0" offset="41%" stop-color="#ced3f8"/><stop id="euSc2aVHG0K178-fill-1" offset="62%" stop-color="#f6f6fb"/></linearGradient></defs><g transform="translate(-47.003813-26.198848)"><path d="M512,453.6l-10.7-6.2c-3.2-1.9-11.1-3.4-17.5-3.4h-255.3C222.1,444,88,527.9,88,527.9c-3.2,1.9-3.2,4.9,0,6.7L283.5,647.5c1.8,1,3.8,1.4,5.9,1.4h5.1L432,569.4l5.7-3.3h74.3v-112.5Z" fill="url(#euSc2aVHG0K4-fill)"/><polygon points="60.9,376 26.2,376 48.2,388.7 26.2,401.4 60.9,401.4 82.9,388.7" fill="url(#euSc2aVHG0K5-fill)"/><polygon points="26.2,401.4 48.2,388.7 48.2,362.9 26.2,375.6" fill="#e19100"/><polygon points="26.2,401.4 4.1,388.7 4.1,362.9 26.2,375.6" fill="#fcba06"/><polygon points="26.2,375.6 4.1,362.9 26.2,350.1 48.2,362.9" fill="#ffd03e"/><rect width="118.4" height="53.4" rx="0" ry="0" transform="translate(112.5 334.1)" fill="url(#euSc2aVHG0K9-fill)"/><path d="M104.9,327.5L66.5,305.3c-2.1-1.3-3.2-2.8-3.2-4.4s1.1-3.2,3.2-4.4l38.4-22.2c4.8-2.4,10.5-2.4,15.3,0l38.4,22.2c2.1,1.3,3.2,2.8,3.2,4.4s-1.1,3.2-3.2,4.4l-38.4,22.2c-4.9,2.5-10.5,2.5-15.3,0v0Z" fill="#f6f6fb"/><path d="M158.6,305.4l-38.4,22.2c-4.8,2.4-10.5,2.4-15.3,0L66.5,305.4c-2.1-1.3-3.2-2.8-3.2-4.4v58c0,1.6,1.1,3.2,3.2,4.4l38.4,22.2c4.8,2.4,10.5,2.4,15.3,0l38.4-22.2c2.1-1.3,3.2-2.8,3.2-4.4v-58.1c0,1.6-1.1,3.2-3.2,4.5Z" fill="url(#euSc2aVHG0K11-fill)"/><ellipse rx="19.3" ry="11.2" transform="translate(112.5 300.9)" fill="url(#euSc2aVHG0K12-fill)"/><rect width="118.4" height="62" rx="0" ry="0" transform="translate(109.7 413.7)" fill="url(#euSc2aVHG0K13-fill)"/><polygon points="77.9,395.3 56.1,382.7 109.7,351.6 131.6,364.2" fill="#f6f6fb"/><polygon points="77.9,457.3 56.1,444.7 56.1,382.7 77.9,395.3" fill="#ced3f8"/><polygon points="77.9,457.3 131.6,426.2 131.6,364.2 77.9,395.3" fill="#6b67e9"/><polygon points="109.7,413.7 87.9,401.1 141.6,370.1 163.4,382.7" fill="#f6f6fb"/><polygon points="109.7,475.7 87.9,463.1 87.9,401.1 109.7,413.7" fill="#ced3f8"/><polygon points="109.7,475.7 163.4,444.7 163.4,382.7 109.7,413.7" fill="#bbc0e6"/><polygon points="77.9,457.3 87.9,457.3 87.9,451.4" fill="#dae0f5"/><polygon points="426.3,183.4 426.3,172.4 409.8,172.4 409.8,161.7 291.3,161.7 291.3,215.1 307.9,215.1 307.9,225.8 328.8,225.8 328.8,236.8 447.3,236.8 447.3,183.4" fill="url(#euSc2aVHG0K21-fill)"/><path d="M280.6,147.8v61.1c0,1.6,1.1,3.2,3.1,4.4c4.8,2.4,10.4,2.4,15.2,0l38.3-22.2c2.1-1.3,3.1-2.8,3.1-4.4v-61.1l-59.7,22.2Z" fill="url(#euSc2aVHG0K22-fill)"/><path d="M337.2,121.3c-2.4-1.3-5.1-1.9-7.8-1.8-2.6,0-5.1.6-7.3,1.8l-38.3,22.1c-2.1,1.2-3.1,2.8-3.1,4.4s1.1,3.2,3.1,4.4c4.8,2.4,10.4,2.4,15.2,0l38.3-22.1c2.1-1.2,3.1-2.8,3.1-4.4s-1-3.2-3.2-4.4Z" fill="#f6f6fb"/><path d="M299.4,158.7v61.1c0,1.6,1.1,3.2,3.1,4.4c4.8,2.4,10.4,2.4,15.2,0L356,202.1c2.1-1.2,3.1-2.8,3.1-4.4v-61.1l-59.7,22.1Z" fill="url(#euSc2aVHG0K24-fill)"/><path d="M356,132.2c-2.4-1.3-5.1-1.9-7.8-1.8-2.6,0-5.1.6-7.3,1.8l-38.3,22.1c-2.1,1.2-3.1,2.8-3.1,4.4s1.1,3.2,3.1,4.4c4.8,2.4,10.4,2.4,15.2,0L356.1,141c2.1-1.3,3.1-2.8,3.1-4.4s-1.1-3.2-3.2-4.4Z" fill="#f6f6fb"/><path d="M318.1,169.6v61.1c0,1.6,1.1,3.2,3.1,4.4c4.8,2.4,10.4,2.4,15.2,0L374.7,213c2.1-1.3,3.1-2.8,3.1-4.4v-61.1l-59.7,22.1Z" fill="url(#euSc2aVHG0K26-fill)"/><path d="M374.8,143c-2.4-1.3-5.1-1.9-7.8-1.8-2.6,0-5.1.6-7.3,1.8l-38.3,22.1c-2.1,1.2-3.1,2.8-3.1,4.4s1.1,3.2,3.1,4.4c4.8,2.4,10.4,2.4,15.2,0l38.3-22.1c2.1-1.3,3.1-2.8,3.1-4.4-.1-1.6-1.1-3.1-3.2-4.4Z" fill="#f6f6fb"/><g><g clip-path="url(#euSc2aVHG0K32)"><g><path d="M944.1,343.9L766.2,241.2c-9.8-5.6-22.6-8.5-35.5-8.5h-192.6v99.3l-20.7,12c-9.8,5.7-14.7,13-14.7,20.4s4.9,14.8,14.7,20.5l20.7,12v99.1h192.6c12.8,0,25.6-2.8,35.5-8.5L944.1,384.7c9.8-5.7,14.7-13.1,14.7-20.5s-4.9-14.6-14.7-20.3Z" fill="url(#euSc2aVHG0K31-fill)"/></g><clipPath id="euSc2aVHG0K32"><use width="397.5" height="275.799988" xlink:href="#euSc2aVHG0K2" transform="translate(492.4 224.6)"/></clipPath></g></g><path d="M502.7,347.5L324.8,244.8c-9.8-5.6-14.7-13-14.7-20.4s4.9-14.8,14.7-20.5L502.7,101.2c9.8-5.7,22.6-8.5,35.4-8.5s25.6,2.8,35.5,8.5L751.5,203.9c9.8,5.7,14.7,13.1,14.7,20.5s-4.9,14.8-14.7,20.4l-178,102.7c-9.8,5.6-22.6,8.5-35.5,8.5-12.8,0-25.5-2.9-35.3-8.5Z" fill="#f6f6fb"/><path d="M751.5,244.8L573.6,347.5c-9.8,5.6-22.6,8.5-35.5,8.5s-25.6-2.8-35.4-8.5L324.8,244.8c-9.8-5.6-14.7-13-14.7-20.4v140c0,7.4,4.9,14.8,14.7,20.5L502.7,487.6c9.8,5.6,22.6,8.5,35.4,8.5s25.6-2.8,35.5-8.5L751.5,384.8c9.8-5.7,14.7-13.1,14.7-20.5v-140c0,7.4-4.9,14.8-14.7,20.5Z" fill="url(#euSc2aVHG0K35-fill)"/><path d="M751.5,365.3L573.6,468c-9.8,5.6-22.6,8.5-35.5,8.5s-25.6-2.8-35.4-8.5L324.8,365.3c-9.8-5.6-14.7-13-14.7-20.4v19.5c0,7.4,4.9,14.8,14.7,20.5L502.7,487.6c9.8,5.6,22.6,8.5,35.4,8.5s25.6-2.8,35.5-8.5L751.5,384.8c9.8-5.7,14.7-13.1,14.7-20.5v-19.5c0,7.5-4.9,14.9-14.7,20.5Z" fill="url(#euSc2aVHG0K36-fill)"/><g id="euSc2aVHG0K37_ts" transform="translate(472.949997,258.699997) scale(0,0)"><g transform="translate(-472.949997,-258.699997)"><polygon points="450.7,317.5 447.1,315.4 571.2,243.8 574.8,245.8" fill="#dae0f5"/><polygon points="431.7,306.5 428.1,304.4 552.2,232.8 555.8,234.9" fill="#dae0f5"/><polygon points="412.7,295.5 409.1,293.5 533.2,221.8 536.8,223.9" fill="#dae0f5"/><polygon points="393.7,284.6 390.1,282.5 514.2,210.9 517.8,212.9" fill="#dae0f5"/><polygon points="374.7,273.6 371.1,271.5 495.2,199.9 498.8,202" fill="#dae0f5"/></g></g><polygon points="326.6,529.1 323.1,527.1 447.1,455.4 450.7,457.5" fill="#dae0f5"/><polygon points="307.6,518.2 304.1,516.1 428.1,444.5 431.7,446.5" fill="#dae0f5"/><polygon points="288.7,507.2 285.1,505.2 409.1,433.5 412.7,435.6" fill="#dae0f5"/><polygon points="269.7,496.2 266.1,494.2 390.1,422.5 393.7,424.6" fill="#dae0f5"/><polygon points="250.7,485.3 247.1,483.2 371.1,411.6 374.7,413.7" fill="#dae0f5"/><g id="euSc2aVHG0K48_ts" transform="translate(410.900009,364.5) scale(0,0)"><g transform="translate(-410.900009,-364.5)"><polygon points="450.7,457.5 447.1,455.4 447.1,315.4 450.7,317.5" fill="#bbc0e6"/><polygon points="431.7,446.5 428.1,444.5 428.1,304.4 431.7,306.5" fill="#bbc0e6"/><polygon points="412.7,435.6 409.1,433.5 409.1,293.5 412.7,295.5" fill="#bbc0e6"/><polygon points="393.7,424.6 390.1,422.5 390.1,282.5 393.7,284.6" fill="#bbc0e6"/><polygon points="374.7,413.7 371.1,411.6 371.1,271.5 374.7,273.6" fill="#bbc0e6"/></g></g><path d="M755.1,242.5c-16.6-4.9-33.6-8.6-50.8-11-1.3-2.2-4-4.5-8.1-6.9-20.8-12-71-21.8-112.9-22.2-1.1-.8-2.3-1.6-3.5-2.3-18.5-10.6-63.6-19.3-100.6-19.3s-52.1,8.7-33.5,19.3l147.7,85.3c12.1,7,33.3,13.2,57.3,17.6l100.9-58.3c1.2-.7,2.4-1.4,3.5-2.2Z" fill="url(#euSc2aVHG0K54-fill)"/><path d="M440.3,120c1.3.8,2.7,1.7,4,2.5.6-23.5,17.6-32.9,38.4-20.9c4.3,2.5,8.3,5.6,11.9,9.1c7.9-9.1,21.4-10.4,36.7-1.5c23.4,13.5,42.4,45.5,44,72.9c4.5,1,8.7,2.7,12.7,5.1c22.8,13.2,41.4,45.3,41.4,71.7c0,1.3-.1,2.5-.2,3.7-1.7,23.6-19.5,32.8-41.2,20.2L440.2,197.5c-18.5-10.7-33.5-36.7-33.5-58.1s15.1-30,33.6-19.4Z" fill="#ced3f8"/><path d="M525.8,91.5l5.3-3.1v0c8.1-5.4,19.5-5,32.3,2.4c23.4,13.5,42.4,45.5,44,72.9v0l-32,18.5c-1.6-27.4-20.7-59.4-44-72.9-11.6-6.7-22.1-7.6-30-3.7v0l24.4-14.1Z" fill="url(#euSc2aVHG0K56-fill)"/><path d="M448.4,99.3v0c3.2-1.9,6.9-2.7,10.6-2.3l-3.2,1.9v0c-6.9,3.8-11.3,12-11.6,23.7-1.3-.9-2.6-1.8-4-2.5-9.2-5.3-17.5-5.8-23.6-2.4l31.8-18.4Z" fill="#f6f6fb"/><path d="M620.1,168.7c22.8,13.2,41.4,45.3,41.4,71.7c0,1.3-.1,2.5-.2,3.7-.8,11-5.1,18.9-11.6,22.9v0v0l-.2.1-31.8,18.3v0c6.6-4,10.8-11.8,11.6-22.8.1-1.2.2-2.4.2-3.7c0-26.4-18.5-58.5-41.4-71.7-3.9-2.4-8.2-4.1-12.7-5.1v0l32-18.5c4.5,1.1,8.7,2.8,12.7,5.1Z" fill="url(#euSc2aVHG0K58-fill)"/><path d="M459,97l28.5-16.5v0c6.9-4,16.5-3.5,27.2,2.7c4,2.3,7.7,5.1,11,8.2l-24.4,14.1v0c-2.6,1.3-4.8,3-6.7,5.2-3.6-3.5-7.6-6.5-11.9-9.1-10.4-6-19.9-6.7-26.8-2.9v0L459,97Z" fill="#f6f6fb"/><path d="M620.1,168.7c-3.9-2.4-8.2-4.1-12.7-5.1l-32,18.5c6.2,0,35.8-2.3,54.2-6.7-3-2.4-6.2-4.7-9.5-6.7Z" fill="url(#euSc2aVHG0K60-fill)"/><path d="M440.3,190.6c-15.2-8.8-27.6-30.2-27.6-47.7s12.4-24.7,27.6-15.9c1,.6,2.1,1.3,3.3,2.1l6.5,4.6.2-7.4c.5-20.1,14.8-27.9,32.4-17.6c3.7,2.1,7.1,4.7,10.1,7.6l4.3,4.1l2.5-2.9c7.1-8.2,19-8.7,31.8-1.3c20,11.5,36.7,39.3,38.1,63.1l.5,9.1l7.2,1.5c3.8.8,7.5,2.3,10.8,4.3c19.5,11.3,35.4,38.8,35.4,61.3c0,.9,0,1.9-.1,3.1-1.4,20.4-16.9,27.9-35.3,17.4L440.3,190.6Z" fill="url(#euSc2aVHG0K61-fill)"/><g id="euSc2aVHG0K62_ts" transform="translate(509.600021,197.881317) scale(0,0)"><path d="M509.6,150.8c-4.2-2.4-7.5-.4-7.5,4.4.3,4.5,2.3,8.8,5.7,11.8v62.6l3.6,2.1v-62.7c3.3,1,5.8-1,5.8-5.1-.3-5.3-3.1-10.1-7.6-13.1Zm0,13.3c-2.3-1.5-3.8-4.1-4-6.9c0-2.5,1.8-3.5,4-2.3c2.3,1.5,3.8,4.1,4,6.9c0,2.5-1.8,3.6-4,2.3v0Zm40.9,30.5c-.3-5.3-3.1-10.2-7.5-13.1-4.2-2.4-7.6-.5-7.6,4.3.1,2.6.8,5.2,2.2,7.4l-10.8,14.2v32.9l3.6,2.1v-31.8l10.3-13.5c.7.7,1.5,1.2,2.3,1.7c4.1,2.6,7.5.6,7.5-4.2v0Zm-7.6.3c-2.3-1.5-3.8-4.1-4-6.9c0-2.5,1.8-3.5,4-2.3c2.3,1.5,3.8,4.1,4,6.9c0,2.5-1.8,3.5-4,2.3v0Zm24.3,20c-4.2-2.4-7.6-.4-7.6,4.4c0,1.4.3,2.8.7,4.2l-14.5,5.3v22.8l3.6,2.1v-20.9l13.2-4.8c1.2,1.8,2.7,3.3,4.5,4.4c4.2,2.4,7.5.5,7.5-4.3-.3-5.5-3-10.3-7.4-13.2v0Zm0,13.3c-2.3-1.5-3.8-4.1-4-6.9c0-2.5,1.8-3.5,4-2.3c2.3,1.5,3.8,4.1,4,6.9-.1,2.5-1.9,3.6-4,2.3v0Zm-83.4-72c-.3-5.3-3.1-10.2-7.5-13.1-4.2-2.4-7.5-.5-7.5,4.3.3,5.3,3.1,10.2,7.5,13.1.7.4,1.5.7,2.3.9l10.3,25.3v31.8l3.6,2.1v-32.9L481.7,161c1.2-.8,2.1-2.5,2.1-4.8Zm-7.5.2c-2.3-1.5-3.8-4.1-4-6.9c0-2.5,1.8-3.5,4-2.3c2.3,1.5,3.8,4.1,4,6.9c0,2.5-1.8,3.5-4,2.3v0Zm-16.7,5.1c-.3-5.3-3.1-10.1-7.5-13.1-4.2-2.4-7.5-.4-7.5,4.3.3,5.3,3.1,10.2,7.5,13.1c1.3.9,3,1.2,4.5.8l13.2,20.1v20.8l3.6,2.1v-22.8l-14.5-22.1c.5-.9.7-2,.7-3.2v0Zm-7.5.3c-2.3-1.5-3.8-4.1-4-6.9c0-2.5,1.8-3.5,4-2.3c2.3,1.5,3.8,4.1,4,6.9-.1,2.5-1.8,3.5-4,2.3v0Z" transform="translate(-509.600021,-197.881317)" fill="url(#euSc2aVHG0K62-fill)"/></g><path d="M424.2,556.7c0,3.7-2.6,5.2-5.8,3.4L222.9,447.2c-3.4-2.3-5.6-6-5.8-10.1v-147.3c0-3.7,2.6-5.2,5.8-3.4L418.4,399.3c3.4,2.3,5.6,6,5.8,10.1v147.3Z" fill="#423eaf"/><path d="M422.8,396.7L227.3,283.8c-1.2-.9-2.8-1-4.1-.4v0l-4.2,2.4v0c1.3-.5,2.8-.3,3.9.5L418.4,399.2c3.4,2.3,5.6,6,5.8,10.1v147.4c.2,1.5-.5,2.9-1.7,3.8v0l4.2-2.4v0c1.3-.8,2.1-2.3,1.9-3.8v-147.6c-.2-4.1-2.4-7.8-5.8-10Z" fill="url(#euSc2aVHG0K64-fill)"/><polygon points="222.9,293.1 222.9,438.2 418.4,551 418.4,405.9" fill="#fff"/><path d="M285.9,639.2c-3.7,1.8-8,1.8-11.6,0L78.7,526.3c-3.2-1.9-3.2-4.9,0-6.7L212,442.7c3.7-1.8,8-1.8,11.6,0L419.1,555.6c3.2,1.9,3.2,4.9,0,6.7L285.9,639.2Z" fill="#f1f1f6"/><polygon points="223.8,458.7 214.3,453.1 219,450.4 228.6,455.9" fill="#dae0f5"/><polygon points="239.9,467.9 230.4,462.4 235.1,459.7 244.7,465.2" fill="#dae0f5"/><polygon points="256,477.2 246.5,471.7 251.2,469 260.8,474.5" fill="#dae0f5"/><polygon points="272.1,486.6 262.6,481 267.4,478.3 276.9,483.8" fill="#dae0f5"/><polygon points="288.2,495.8 278.7,490.3 283.4,487.6 293,493.1" fill="#dae0f5"/><polygon points="304.3,505.1 294.8,499.6 299.6,496.9 309.1,502.4" fill="#dae0f5"/><polygon points="320.4,514.4 310.9,508.9 315.7,506.2 325.2,511.7" fill="#dae0f5"/><polygon points="336.5,523.7 327,518.2 331.7,515.4 341.3,521" fill="#dae0f5"/><polygon points="352.6,533 343.1,527.5 347.9,524.7 357.4,530.3" fill="#dae0f5"/><polygon points="368.7,542.3 359.2,536.8 363.9,534 373.5,539.6" fill="#dae0f5"/><polygon points="384.8,551.6 375.3,546.1 380.1,543.3 389.6,548.9" fill="#dae0f5"/><polygon points="400.9,560.9 391.4,555.4 396.2,552.6 405.7,558.1" fill="#dae0f5"/><polygon points="215.3,472.4 198.2,462.4 207.7,456.9 224.9,466.8" fill="#dae0f5"/><polygon points="206.5,485 182.7,471.3 192.3,465.8 216,479.5" fill="#dae0f5"/><polygon points="196.9,498.1 166.6,480.6 176.2,475.1 206.5,492.6" fill="#dae0f5"/><polygon points="164.3,501.8 147.1,491.9 160.1,484.4 177.3,494.3" fill="#dae0f5"/><polygon points="188.1,515.5 170.9,505.6 183.8,498.1 201,508" fill="#dae0f5"/><polygon points="211.8,529.2 194.6,519.3 207.5,511.8 224.7,521.7" fill="#dae0f5"/><polygon points="293.6,576.4 276.4,566.5 289.4,559 306.5,569" fill="#dae0f5"/><polygon points="333.8,599.7 300.1,580.2 313,572.7 346.8,592.2" fill="#dae0f5"/><polygon points="269.9,562.8 218.3,533 231.3,525.5 282.9,555.3" fill="#dae0f5"/><polygon points="236,484.3 221.9,476.1 231.5,470.6 245.5,478.7" fill="#dae0f5"/><polygon points="227.1,496.9 213,488.8 222.6,483.3 236.6,491.4" fill="#dae0f5"/><polygon points="217.9,509.8 203.9,501.6 213.4,496.1 227.5,504.2" fill="#dae0f5"/><polygon points="238.5,521.7 224.5,513.5 234.1,508 248.1,516.1" fill="#dae0f5"/><polygon points="259.2,533.5 245.1,525.4 254.7,519.9 268.7,528" fill="#dae0f5"/><polygon points="279.8,545.4 265.7,537.3 275.3,531.8 289.3,539.9" fill="#dae0f5"/><polygon points="300.4,557.3 286.3,549.2 295.9,543.7 309.9,551.8" fill="#dae0f5"/><polygon points="321,569.2 306.9,561.1 316.5,555.6 330.5,563.7" fill="#dae0f5"/><polygon points="353.7,588.2 327.5,573 337.1,567.5 363.3,582.6" fill="#dae0f5"/><polygon points="247.7,508.8 233.6,500.7 243.2,495.2 257.2,503.3" fill="#dae0f5"/><polygon points="268.3,520.7 254.2,512.6 263.8,507.1 277.8,515.2" fill="#dae0f5"/><polygon points="288.9,532.6 274.8,524.5 284.4,519 298.4,527.1" fill="#dae0f5"/><polygon points="309.5,544.5 295.4,536.4 305,530.9 319.1,539" fill="#dae0f5"/><polygon points="330.1,556.4 316,548.3 325.6,542.8 339.7,550.9" fill="#dae0f5"/><polygon points="369.4,579.1 336.6,560.2 346.2,554.7 379,573.6" fill="#dae0f5"/><polygon points="256.6,496.2 242.5,488 252.1,482.5 266.1,490.6" fill="#dae0f5"/><polygon points="277.2,508 263.1,499.9 272.7,494.4 286.7,502.5" fill="#dae0f5"/><polygon points="297.8,519.9 283.7,511.8 293.3,506.3 307.3,514.4" fill="#dae0f5"/><polygon points="318.4,531.8 304.3,523.7 313.9,518.2 327.9,526.3" fill="#dae0f5"/><polygon points="339,543.7 324.9,535.6 334.5,530.1 348.6,538.2" fill="#dae0f5"/><polygon points="359.6,555.6 345.5,547.5 355.1,542 369.2,550.1" fill="#dae0f5"/><polygon points="384.8,570.2 366.1,559.4 375.7,553.9 394.4,564.7" fill="#dae0f5"/><polygon points="394,546.3 239.5,457.2 244.1,454.5 398.6,543.7" fill="#6b67e9"/><polygon points="269.9,574.3 191.1,528.8 142.1,557.1 220.9,602.6" fill="#dae0f5"/><path d="M419.1,562.2l-133.2,77c-2.9,1.5-6.3,1.8-9.4.9c0,0-1.9-.7-2.2-.9L78.7,526.3c-.2-.1-.4-.3-.6-.4v0v0l-.2-.1-.3-.3-.2-.1c-.1-.1-.2-.2-.3-.4v0v0c-.1-.1-.2-.3-.3-.4-.3-.4-.4-.9-.4-1.4v0v2.8v0c.1,1.4,1,2.7,2.3,3.3L274.2,642.2c4.7,2.3,11.3,1.9,13.3,1.4s3.8-.9,5.8-1.4L419,569.6c1.4-.6,2.3-1.9,2.4-3.4v-7.3c-.1,1.4-1,2.7-2.3,3.3Z" fill="url(#euSc2aVHG0K112-fill)"/><path id="euSc2aVHG0K113" d="M378.1,397.7l-6.5-3.7c-.6-.3-1-.1-1,.6v25.5c.1,1.6.9,3,2.2,3.9l28.4,16.4c1.3.7,2.2.1,2.2-1.3v-22.4c0-.7-.4-1.4-1-1.8l-21.6-12.5-2.7-4.7Z" opacity="0" fill="#fcba06"/><path id="euSc2aVHG0K114" d="M378.1,439.8l-6.5-3.7c-.6-.3-1-.1-1,.6v25.5c.1,1.6.9,3,2.2,3.9l28.4,16.4c1.3.7,2.2.1,2.2-1.3v-22.4c0-.7-.4-1.4-1-1.8l-21.6-12.5-2.7-4.7Z" opacity="0" fill="#fcba06"/><path id="euSc2aVHG0K115" d="M378.1,482l-6.5-3.7c-.6-.3-1-.1-1,.6v25.5c.1,1.6.9,3,2.2,3.9l28.4,16.5c1.3.7,2.2.1,2.2-1.3v-22.5c0-.7-.4-1.4-1-1.8l-21.6-12.5-2.7-4.7Z" opacity="0" fill="#fcba06"/><g id="euSc2aVHG0K116_tr" transform="translate(320.699997,422.050003) rotate(64800)"><g transform="translate(-320.699997,-422.050003)"><path d="M320.7,392c8.9,5.2,17.1,15.2,21.9,26.4-.8.7-1.3,1.8-1.2,2.9.2,3.3,1.9,6.4,4.7,8.2c2.6,1.5,4.7.3,4.7-2.7-.2-3.3-1.9-6.4-4.7-8.2-.2-.1-.4-.2-.6-.3-5.3-12.8-14.7-24.3-24.9-30.2-16.2-9.4-29.4-1.7-29.4,17l3.4,1.9c0-16.6,11.7-23.3,26.1-15Z" fill="#6b67e9"/><path d="M320.7,452.1c-8.9-5.2-17.1-15.2-21.9-26.4.8-.7,1.3-1.8,1.2-2.9-.2-3.3-1.9-6.4-4.7-8.2-2.6-1.5-4.7-.3-4.7,2.7.2,3.3,1.9,6.4,4.7,8.2.2.1.4.2.6.3c5.3,12.8,14.7,24.3,24.9,30.2c16.2,9.4,29.4,1.7,29.4-17l-3.4-1.9c-.1,16.6-11.8,23.3-26.1,15Z" fill="#6b67e9"/></g></g><polygon points="239.7,322.4 235.5,319.9 235.5,315.4 239.7,317.9" fill="#fcba06"/><polygon points="239.7,349.3 235.5,346.9 235.5,324.6 239.7,327" fill="#dae0f5"/><polygon points="239.7,358.2 235.5,355.8 235.5,351.3 239.7,353.7" fill="#fcba06"/><polygon points="239.7,371.5 235.5,369.1 235.5,360.1 239.7,362.5" fill="#dae0f5"/><polygon points="239.7,398.2 235.5,395.8 235.5,373.5 239.7,375.9" fill="#dae0f5"/><polygon points="239.7,429.3 235.5,426.9 235.5,400.2 239.7,402.6" fill="#dae0f5"/><polygon points="249.9,332.7 245.7,330.3 245.7,321.3 249.9,323.7" fill="#dae0f5"/><polygon points="249.9,344 245.7,341.6 245.7,334.9 249.9,337.3" fill="#dae0f5"/><polygon points="249.9,352.9 245.7,350.5 245.7,346 249.9,348.4" fill="#fcba06"/><polygon points="249.9,366.2 245.7,363.8 245.7,354.8 249.9,357.2" fill="#dae0f5"/><polygon points="249.9,404.1 245.7,401.7 245.7,368.2 249.9,370.6" fill="#dae0f5"/><polygon points="249.9,421.8 245.7,419.4 245.7,406 249.9,408.5" fill="#dae0f5"/><polygon points="249.9,435.2 245.7,432.7 245.7,423.8 249.9,426.2" fill="#fcba06"/><polygon points="260.1,334.1 255.9,331.7 255.9,327.2 260.1,329.6" fill="#dae0f5"/><polygon points="260.1,343.2 255.9,340.8 255.9,336.3 260.1,338.7" fill="#fcba06"/><polygon points="260.1,369.8 255.9,367.4 255.9,345.2 260.1,347.6" fill="#dae0f5"/><polygon points="260.1,383.1 255.9,380.7 255.9,371.7 260.1,374.2" fill="#dae0f5"/><polygon points="260.1,391.8 255.9,389.3 255.9,385.1 260.1,387.5" fill="#fcba06"/><polygon points="260.1,422.8 255.9,420.4 255.9,393.7 260.1,396.1" fill="#dae0f5"/><polygon points="260.1,441 255.9,438.6 255.9,424.8 260.1,427.2" fill="#dae0f5"/><polygon points="270.2,340 266,337.5 266,333 270.2,335.5" fill="#fcba06"/><polygon points="270.2,366.9 266,364.5 266,342.2 270.2,344.6" fill="#dae0f5"/><polygon points="270.2,375.8 266,373.4 266,368.9 270.2,371.3" fill="#fcba06"/><polygon points="270.2,389.1 266,386.7 266,377.7 270.2,380.1" fill="#dae0f5"/><polygon points="270.2,402 266,399.6 266,391.1 270.2,393.5" fill="#fcba06"/><polygon points="270.2,446.9 266,444.5 266,404 270.2,406.4" fill="#dae0f5"/><path d="M629.8,582.1L581.1,554c-4.7-2.7-13-2.4-18.5.8l-42.2,24.3c-5.5,3.2-6.1,7.9-1.3,10.7L553,609.4v10.4h23.2c3.5,0,7-.9,10.1-2.5l42.2-24.4c5.4-3.3,6-8.1,1.3-10.8Z" fill="url(#euSc2aVHG0K145-fill)"/><g id="euSc2aVHG0K146_to" transform="translate(602,554)"><g transform="translate(-602,-554)"><path d="M605.7,572.3l-6.7-3.9l13-7.5c8.9-5.1,8.9-13.4,0-18.4s-23.2-5.1-32,0L567,550l-6.7-3.9l13-7.5c12.5-7.2,32.9-7.2,45.4,0s12.5,19,0,26.2l-13,7.5Z" fill="#5652cc"/><path d="M617.4,555.7c2.5-4.5.7-9.7-5.5-13.2-8.9-5.1-23.2-5.1-32,0l-13,7.5v.2l-6.7,3.9l6.7,3.9l13-7.5c8.9-5.1,23.2-5.1,32,0c2.3,1.1,4.2,3,5.5,5.2Z" fill="#362e94"/><path d="M618.6,564.8l-13,7.5v.2l-6.7,3.8l6.7,3.9l13-7.5c6.3-3.6,9.4-8.4,9.4-13.2v0-7.9c0,4.9-3.1,9.6-9.4,13.2Z" fill="#362e94"/></g></g><path d="M545.3,604.3l-48.7-28.1c-4.7-2.7-4.1-7.5,1.3-10.7l42.2-24.3c5.5-3.2,13.8-3.5,18.5-.8l48.7,28.1c4.8,2.7,4.2,7.5-1.3,10.7l-42.2,24.3c-5.4,3.2-13.7,3.6-18.5.8Z" fill="#e8ecf7"/><path d="M610.5,573c.1,2.1-1.5,4.4-4.5,6.2l-42.2,24.3c-5.5,3.2-13.8,3.5-18.5.8l-48.7-28.1c-1.8-.8-3-2.5-3.2-4.5v13.4v0c.1,2,1.3,3.8,3.2,4.7l48.7,28.1c4.7,2.7,13,2.4,18.5-.8L606,592.7c3-1.7,4.5-4,4.5-6.1v0-13.6v0Z" fill="url(#euSc2aVHG0K151-fill)"/><path d="M493.5,571.5v0v.3c-.1-.2,0-.2,0-.3Z" fill="#bbc0e6"/><polygon points="533.7,579 540.5,582.9 549.6,577.6 549.6,569.8" fill="#423eaf"/><path d="M566.9,563.8c-6.1-3.1-13.4-3.1-19.6,0-1.3.7-2.3,1.7-3.2,2.8l5.5,3.2v7.9l6.8-3.9l5.5,3.2c1.7-.3,3.4-1,4.9-1.8c5.5-3.3,5.5-8.3.1-11.4Z" fill="url(#euSc2aVHG0K154-fill)"/><polygon points="364.1,684.8 329.4,684.8 351.4,697.5 329.4,710.2 364.1,710.2 386.1,697.5" fill="url(#euSc2aVHG0K155-fill)"/><polygon points="329.4,710.2 351.4,697.5 351.4,671.7 329.4,684.4" fill="#b9bee4"/><polygon points="329.4,710.2 307.4,697.5 307.4,671.7 329.4,684.4" fill="#ccd1f6"/><polygon points="329.4,684.4 307.4,671.7 329.4,659 351.4,671.7" fill="#f6f6fb"/><polygon points="873.9,458.4 839.1,458.4 861.2,471.1 839.1,483.9 873.9,483.9 895.9,471.1" fill="url(#euSc2aVHG0K159-fill)"/><polygon points="839.1,483.9 861.2,471.1 861.2,445.3 839.1,458" fill="#362e94"/><polygon points="839.1,483.9 817.1,471.1 817.1,445.3 839.1,458" fill="#5652cc"/><polygon points="839.1,458 817.1,445.3 839.1,432.6 861.2,445.3" fill="#807dfb"/><rect width="124.3" height="69.1" rx="0" ry="0" transform="translate(716.3 416.7)" fill="url(#euSc2aVHG0K163-fill)"/><rect width="97.8" height="59.1" rx="0" ry="0" transform="translate(732.4 513.3)" fill="url(#euSc2aVHG0K164-fill)"/><rect width="126" height="56.8" rx="0" ry="0" transform="translate(529.4 665.2)" fill="url(#euSc2aVHG0K165-fill)"/><path d="M707.8,419L665,394.3c-2.4-1.4-3.5-3.1-3.5-4.9s1.2-3.6,3.5-4.9l42.8-24.7c5.4-2.7,11.7-2.7,17,0l42.8,24.7c2.4,1.4,3.5,3.1,3.5,4.9s-1.2,3.6-3.5,4.9L724.8,419c-5.3,2.7-11.7,2.7-17,0Z" fill="#fff"/><path d="M767.7,394.3L724.8,419c-5.4,2.7-11.7,2.7-17,0L665,394.3c-2.4-1.4-3.5-3.1-3.5-4.9v64.8c0,1.8,1.2,3.6,3.5,4.9l42.8,24.7c5.4,2.7,11.7,2.7,17,0l42.8-24.7c2.4-1.4,3.5-3.1,3.5-4.9v-64.8c.1,1.7-1.1,3.5-3.4,4.9Z" fill="url(#euSc2aVHG0K167-fill)"/><polygon id="euSc2aVHG0K168" points="750.5,383.2 761.1,389.3 750.5,395.5 739.9,389.3" opacity="0" fill="#ffd03e"/><polygon id="euSc2aVHG0K169" points="733.4,373.4 744,379.5 733.4,385.6 722.8,379.5" opacity="0" fill="#ffd03e"/><polygon id="euSc2aVHG0K170" points="716.3,363.5 726.9,369.6 716.3,375.7 705.7,369.6" opacity="0" fill="#ffd03e"/><polygon id="euSc2aVHG0K171" points="699.2,373.4 709.8,379.5 699.2,385.6 688.6,379.5" transform="translate(.3 0)" opacity="0" fill="#ffd03e"/><polygon id="euSc2aVHG0K172" points="716.3,383.2 726.9,389.3 716.3,395.5 705.7,389.3" transform="translate(.3 0)" opacity="0" fill="#ffd03e"/><polygon id="euSc2aVHG0K173" points="733.4,393.1 744,399.2 733.4,405.3 722.8,399.2" transform="translate(.3 0)" opacity="0" fill="#ffd03e"/><polygon id="euSc2aVHG0K174" points="682.1,383.2 692.7,389.3 682.1,395.5 671.5,389.3" opacity="0" fill="#ffd03e"/><polygon id="euSc2aVHG0K175" points="699.2,393.1 709.8,399.2 699.2,405.3 688.6,399.2" opacity="0" fill="#ffd03e"/><polygon id="euSc2aVHG0K176" points="716.3,403 726.9,409.1 716.3,415.2 705.7,409.1" opacity="0" fill="#ffd03e"/><path d="M574.1,697.3l-40.9,23.6c-2.2,1.3-4.3,1.4-5.7.6-1.5-.8-2.4-2.7-2.4-5.3v-47.2c.3-5.7,3.3-10.9,8.1-14.1l40.9-23.6c2.2-1.3,4.3-1.4,5.7-.6c1.5.8,2.4,2.7,2.4,5.3v47.2c-.3,5.7-3.4,10.9-8.1,14.1v0Z" fill="#bbc0e6"/><path d="M525.1,716.2v-47.2c.3-5.7,3.3-10.9,8.1-14.1l40.9-23.6c2.2-1.3,4.3-1.4,5.7-.6l-53.5-30.9c-1.5-.9-3.5-.7-5.8.6L479.7,624c-4.8,3.1-7.8,8.4-8.1,14.1v47.2c0,2.5.9,4.4,2.4,5.3l53.5,30.9c-1.5-.9-2.4-2.7-2.4-5.3Z" transform="translate(-.904098-1.379486)" fill="url(#euSc2aVHG0K178-fill)"/><g id="euSc2aVHG0K179_to" transform="translate(544.700012,679.795227)"><g transform="translate(-544,-681)"><path d="M519,656.1c1.4-2.5,3.4-4.6,5.8-6.1l40.9-23.6c2.3-1.3,4.3-1.4,5.8-.6l2.5,1.5c-1.5-.8-3.5-.7-5.7.6l-40.8,23.6c-4.8,3.1-7.8,8.4-8.1,14.1v47.2c0,2.5.9,4.4,2.4,5.3v0l-2.5-1.5c-1.5-.8-2.4-2.7-2.4-5.3v-47.2c-.2-2.8.6-5.6,2.1-8Z" transform="translate(-.770554-.770554)" fill="#dae0f5"/><path d="M512.1,652.2c1.4-2.5,3.4-4.6,5.8-6.1l40.9-23.6c2.3-1.3,4.3-1.4,5.8-.6l2.5,1.5c-1.5-.8-3.5-.7-5.7.6l-40.9,23.6c-4.8,3.1-7.8,8.4-8.1,14.1v47.2c0,2.5.9,4.4,2.4,5.3v0l-2.5-1.5c-1.5-.8-2.4-2.7-2.4-5.3v-47.2c-.1-2.9.7-5.6,2.2-8Z" transform="translate(-.770554-.770554)" fill="#dae0f5"/><path d="M505.2,648.2c1.4-2.5,3.3-4.6,5.8-6.1l40.9-23.6c2.2-1.3,4.3-1.4,5.8-.6l2.5,1.5c-1.5-.8-3.5-.7-5.7.6l-40.9,23.6c-4.8,3.1-7.8,8.4-8.1,14.1v47.2c0,2.5.9,4.4,2.4,5.3v0l-2.5-1.5c-1.5-.8-2.4-2.7-2.4-5.3v-47.2c0-2.8.8-5.6,2.2-8Z" transform="translate(-.770554-.770554)" fill="#dae0f5"/><path d="M498.4,644.2c1.4-2.5,3.3-4.6,5.8-6.1l40.9-23.6c2.2-1.3,4.3-1.4,5.8-.6l2.5,1.5c-1.5-.8-3.5-.7-5.7.6l-40.9,23.6c-4.8,3.1-7.8,8.4-8.1,14.1v47.2c0,2.5.9,4.4,2.4,5.3v0l-2.5-1.5c-1.5-.9-2.4-2.7-2.4-5.3v-47.2c-.1-2.8.7-5.6,2.2-8Z" transform="translate(-.770554-.770554)" fill="#dae0f5"/><path d="M491.5,640.2c1.4-2.5,3.3-4.6,5.8-6.1l40.9-23.6c2.2-1.3,4.3-1.4,5.8-.6l2.5,1.5c-1.5-.8-3.5-.7-5.8.6l-40.8,23.6c-4.8,3.1-7.8,8.4-8.1,14.1v47.2c0,2.5.9,4.4,2.4,5.3v0l-2.5-1.5c-1.5-.8-2.4-2.7-2.4-5.3v-47.2c0-2.8.8-5.5,2.2-8Z" transform="translate(-.770555-.770554)" fill="#dae0f5"/><path d="M484.6,636.3c1.4-2.5,3.3-4.6,5.8-6.1l40.9-23.6c2.2-1.3,4.3-1.4,5.8-.6l2.5,1.5c-1.5-.8-3.5-.7-5.8.6L493,631.7c-4.8,3.1-7.8,8.4-8.1,14.1v47.2c0,2.6.9,4.4,2.4,5.3v0l-2.5-1.5c-1.5-.8-2.4-2.7-2.4-5.3v-47.2c0-2.8.8-5.6,2.2-8Z" transform="translate(-.770554-.770554)" fill="#dae0f5"/><path d="M477.8,632.3c1.4-2.5,3.3-4.6,5.8-6.1l40.9-23.6c2.2-1.3,4.3-1.4,5.7-.6l2.5,1.5c-1.5-.8-3.5-.7-5.8.6L486,627.7c-4.8,3.1-7.8,8.4-8.1,14.1v47.2c0,2.5.9,4.4,2.4,5.3v0l-2.5-1.5c-1.5-.9-2.4-2.7-2.4-5.3v-47.2c.1-2.8.9-5.6,2.4-8Z" transform="translate(-.770554-.770554)" fill="#dae0f5"/></g></g><polygon points="732.4,511.4 679.6,480.9 732.4,450.5 785.2,480.9" fill="#f6f6fb"/><polygon points="732.4,572.4 679.6,541.9 679.6,480.9 732.4,511.4" fill="#ced3f8"/><polygon points="732.4,572.4 785.2,541.9 785.2,480.9 732.4,511.4" fill="#bbc0e6"/><g><polygon points="732.4,460.7 728.2,458.2 732.4,455.8 736.7,458.2" fill="#dae0f5"/><polygon points="742.3,466.4 738,463.9 742.3,461.5 746.5,463.9" fill="#dae0f5"/><polygon points="752.1,472 747.9,469.6 752.1,467.1 756.3,469.6" fill="#dae0f5"/><polygon points="761.9,477.7 757.7,475.3 761.9,472.8 766.2,475.3" fill="#dae0f5"/><polygon points="771.8,483.4 767.5,480.9 771.8,478.5 776,480.9" fill="#dae0f5"/><polygon points="722.6,466.4 718.4,463.9 722.6,461.5 726.8,463.9" fill="#dae0f5"/><polygon points="732.4,472 728.2,469.6 732.4,467.1 736.7,469.6" fill="#dae0f5"/><polygon points="742.3,477.7 738,475.3 742.3,472.8 746.5,475.3" fill="#dae0f5"/><polygon points="752.1,483.4 747.9,480.9 752.1,478.5 756.3,480.9" fill="#dae0f5"/><polygon points="761.9,489.1 757.7,486.6 761.9,484.2 766.2,486.6" fill="#dae0f5"/><polygon points="712.8,472 708.5,469.6 712.8,467.1 717,469.6" fill="#dae0f5"/><polygon points="722.6,477.7 718.4,475.3 722.6,472.8 726.8,475.3" fill="#dae0f5"/><polygon points="732.4,483.4 728.2,480.9 732.4,478.5 736.7,480.9" fill="#dae0f5"/><polygon points="742.3,489.1 738,486.6 742.3,484.2 746.5,486.6" fill="#dae0f5"/><polygon points="752.1,494.7 747.9,492.3 752.1,489.9 756.3,492.3" fill="#dae0f5"/><polygon points="702.9,477.7 698.7,475.3 702.9,472.8 707.2,475.3" fill="#dae0f5"/><polygon points="712.8,483.4 708.5,480.9 712.8,478.5 717,480.9" fill="#dae0f5"/><polygon points="722.6,489.1 718.4,486.6 722.6,484.2 726.8,486.6" fill="#dae0f5"/><polygon points="732.4,494.7 728.2,492.3 732.4,489.9 736.7,492.3" fill="#dae0f5"/><polygon points="742.3,500.4 738,498 742.3,495.5 746.5,498" fill="#dae0f5"/><polygon points="693.1,483.4 688.9,480.9 693.1,478.5 697.3,480.9" fill="#dae0f5"/><polygon points="702.9,489.1 698.7,486.6 702.9,484.2 707.2,486.6" fill="#dae0f5"/><polygon points="712.8,494.7 708.5,492.3 712.8,489.9 717,492.3" fill="#dae0f5"/><polygon points="722.6,500.4 718.4,498 722.6,495.5 726.8,498" fill="#dae0f5"/><polygon points="732.4,506.1 728.2,503.7 732.4,501.2 736.7,503.7" fill="#dae0f5"/><polygon points="688.5,496.3 684.3,493.8 684.3,489 688.5,491.4" fill="#dae0f5"/><polygon points="698.3,501.9 694.1,499.5 694.1,494.6 698.3,497.1" fill="#dae0f5"/><polygon points="708.1,507.6 703.9,505.2 703.9,500.3 708.1,502.7" fill="#dae0f5"/><polygon points="718,513.3 713.8,510.9 713.8,506 718,508.4" fill="#dae0f5"/><polygon points="727.8,519 723.6,516.5 723.6,511.7 727.8,514.1" fill="#dae0f5"/><polygon points="688.5,507.6 684.3,505.2 684.3,500.3 688.5,502.7" fill="#dae0f5"/><polygon points="698.3,513.3 694.1,510.9 694.1,506 698.3,508.4" fill="#dae0f5"/><polygon points="708.1,519 703.9,516.5 703.9,511.7 708.1,514.1" fill="#dae0f5"/><polygon points="718,524.7 713.8,522.2 713.8,517.3 718,519.8" fill="#dae0f5"/><polygon points="727.8,530.3 723.6,527.9 723.6,523 727.8,525.5" fill="#dae0f5"/><polygon points="688.5,519 684.3,516.5 684.3,511.7 688.5,514.1" fill="#dae0f5"/><polygon points="698.3,524.7 694.1,522.2 694.1,517.3 698.3,519.8" fill="#dae0f5"/><polygon points="708.1,530.3 703.9,527.9 703.9,523 708.1,525.5" fill="#dae0f5"/><polygon points="718,536 713.8,533.6 713.8,528.7 718,531.1" fill="#dae0f5"/><polygon points="727.8,541.7 723.6,539.3 723.6,534.4 727.8,536.8" fill="#dae0f5"/><polygon points="688.5,530.3 684.3,527.9 684.3,523 688.5,525.5" fill="#dae0f5"/><polygon points="698.3,536 694.1,533.6 694.1,528.7 698.3,531.1" fill="#dae0f5"/><polygon points="708.1,541.7 703.9,539.3 703.9,534.4 708.1,536.8" fill="#dae0f5"/><polygon points="718,547.4 713.8,544.9 713.8,540 718,542.5" fill="#dae0f5"/><polygon points="727.8,553 723.6,550.6 723.6,545.7 727.8,548.2" fill="#dae0f5"/><polygon points="688.5,541.7 684.3,539.3 684.3,534.4 688.5,536.8" fill="#dae0f5"/><polygon points="698.3,547.4 694.1,544.9 694.1,540 698.3,542.5" fill="#dae0f5"/><polygon points="708.1,553 703.9,550.6 703.9,545.7 708.1,548.2" fill="#dae0f5"/><polygon points="718,558.7 713.8,556.3 713.8,551.4 718,553.8" fill="#dae0f5"/><polygon points="727.8,564.4 723.6,562 723.6,557.1 727.8,559.5" fill="#dae0f5"/><polygon points="776.4,496.3 780.6,493.8 780.6,489 776.4,491.4" fill="#dae0f5"/><polygon points="766.6,501.9 770.8,499.5 770.8,494.6 766.6,497.1" fill="#dae0f5"/><polygon points="756.7,507.6 760.9,505.2 760.9,500.3 756.7,502.7" fill="#dae0f5"/><polygon points="746.9,513.3 751.1,510.9 751.1,506 746.9,508.4" fill="#dae0f5"/><polygon points="737.1,519 741.3,516.5 741.3,511.7 737.1,514.1" fill="#dae0f5"/><polygon points="776.4,507.6 780.6,505.2 780.6,500.3 776.4,502.7" fill="#dae0f5"/><polygon points="766.6,513.3 770.8,510.9 770.8,506 766.6,508.4" fill="#dae0f5"/><polygon points="756.7,519 760.9,516.5 760.9,511.7 756.7,514.1" fill="#dae0f5"/><polygon points="746.9,524.7 751.1,522.2 751.1,517.3 746.9,519.8" fill="#dae0f5"/><polygon points="737.1,530.3 741.3,527.9 741.3,523 737.1,525.5" fill="#dae0f5"/><polygon points="776.4,519 780.6,516.5 780.6,511.7 776.4,514.1" fill="#dae0f5"/><polygon points="766.6,524.7 770.8,522.2 770.8,517.3 766.6,519.8" fill="#dae0f5"/><polygon points="756.7,530.3 760.9,527.9 760.9,523 756.7,525.5" fill="#dae0f5"/><polygon points="746.9,536 751.1,533.6 751.1,528.7 746.9,531.1" fill="#dae0f5"/><polygon points="737.1,541.7 741.3,539.3 741.3,534.4 737.1,536.8" fill="#dae0f5"/><polygon points="776.4,530.3 780.6,527.9 780.6,523 776.4,525.5" fill="#dae0f5"/><polygon points="766.6,536 770.8,533.6 770.8,528.7 766.6,531.1" fill="#dae0f5"/><polygon points="756.7,541.7 760.9,539.3 760.9,534.4 756.7,536.8" fill="#dae0f5"/><polygon points="746.9,547.4 751.1,544.9 751.1,540 746.9,542.5" fill="#dae0f5"/><polygon points="737.1,553 741.3,550.6 741.3,545.7 737.1,548.2" fill="#dae0f5"/><polygon points="776.4,541.7 780.6,539.3 780.6,534.4 776.4,536.8" fill="#dae0f5"/><polygon points="766.6,547.4 770.8,544.9 770.8,540 766.6,542.5" fill="#dae0f5"/><polygon points="756.7,553 760.9,550.6 760.9,545.7 756.7,548.2" fill="#dae0f5"/><polygon points="746.9,558.7 751.1,556.3 751.1,551.4 746.9,553.8" fill="#dae0f5"/><polygon points="737.1,564.4 741.3,562 741.3,557.1 737.1,559.5" fill="#dae0f5"/></g></g></svg>