<svg xmlns:xlink="http://www.w3.org/1999/xlink"  xmlns="http://www.w3.org/2000/svg" version="1.0" width="123.000000pt" height="123.000000pt" viewBox="0 0 123.000000 123.000000" preserveAspectRatio="xMidYMid meet">
  <g transform="translate(0.000000,123.000000) scale(0.100000,-0.100000)" fill="#000000" stroke="none">
    <path d="M490 1184 c-106 -22 -204 -77 -285 -159 -231 -230 -231 -588 -1 -820 228 -231 592 -231 822 -1 230 230 230 591 -1 821 -143 144 -338 202 -535 159z m-39 -312 c34 -29 31 -79 -9 -112 -31 -26 -44 -70 -20 -70 26 0 48 -34 48 -74 0 -35 7 -47 46 -87 43 -44 48 -46 89 -42 39 5 45 3 66 -26 30 -41 67 -42 96 -2 27 35 51 42 91 25 79 -33 31 -151 -53 -130 -14 4 -31 18 -37 31 -16 36 -62 34 -98 -5 -35 -38 -72 -39 -107 -4 -20 20 -24 31 -19 57 6 27 1 37 -40 78 -40 41 -51 47 -75 42 -42 -8 -74 4 -87 32 -18 39 -15 54 18 87 32 31 41 78 16 78 -20 0 -46 39 -46 68 0 30 43 72 73 72 14 0 35 -8 48 -18z m206 -4 c30 -28 30 -74 1 -105 -29 -31 -71 -30 -97 3 -27 34 -27 64 0 98 25 32 64 34 96 4z m218 -3 c14 -13 25 -36 25 -50 0 -31 -41 -75 -70 -75 -11 0 -29 6 -40 12 -18 11 -26 7 -71 -38 -45 -45 -50 -54 -40 -72 24 -44 -14 -102 -67 -102 -31 0 -72 43 -72 75 0 14 11 37 25 51 22 21 32 25 63 20 35 -6 39 -4 84 48 29 33 46 60 42 69 -6 18 20 73 38 80 30 12 60 5 83 -18z m0 -200 c14 -13 25 -36 25 -50 0 -33 -42 -75 -75 -75 -33 0 -75 42 -75 75 0 14 11 37 25 50 13 14 36 25 50 25 14 0 37 -11 50 -25z m-428 -197 c29 -27 29 -65 1 -95 -27 -29 -65 -29 -95 -1 -29 27 -29 65 -1 95 27 29 65 29 95 1z" style="fill: rgb(255, 0, 0); paint-order: fill; fill-rule: nonzero;"/>
    <path d="M365 850 c-27 -29 -10 -74 28 -78 37 -4 57 13 57 49 0 47 -53 65 -85 29z" style="fill: rgb(255, 0, 0); paint-order: fill; fill-rule: nonzero;"/>
    <path d="M366 654 c-9 -8 -16 -24 -16 -34 0 -40 60 -66 88 -38 15 15 15 61 0 76 -17 17 -54 15 -72 -4z" style="fill: rgb(255, 0, 0); paint-order: fill; fill-rule: nonzero;"/>
    <path d="M584 462 c-36 -25 -14 -92 31 -92 35 0 62 43 47 75 -12 25 -53 34 -78 17z" style="fill: rgb(255, 0, 0); paint-order: fill; fill-rule: nonzero;"/>
    <path d="M791 456 c-21 -26 -10 -69 22 -80 23 -8 31 -6 49 12 18 18 20 26 12 49 -7 21 -17 29 -40 31 -18 2 -36 -3 -43 -12z" style="fill: rgb(255, 0, 0); paint-order: fill; fill-rule: nonzero;"/>
    <path d="M577 852 c-22 -24 -21 -55 1 -75 24 -22 45 -21 65 1 22 24 21 55 -1 75 -24 22 -45 21 -65 -1z" style="fill: rgb(255, 0, 0); paint-order: fill; fill-rule: nonzero;"/>
    <path d="M798 858 c-31 -24 -27 -74 7 -90 53 -24 100 46 57 85 -22 20 -42 21 -64 5z" style="fill: rgb(255, 0, 0); paint-order: fill; fill-rule: nonzero;"/>
    <path d="M582 654 c-27 -18 -29 -55 -4 -77 22 -20 42 -21 66 -4 35 26 14 97 -29 97 -6 0 -21 -7 -33 -16z" style="fill: rgb(255, 0, 0); paint-order: fill; fill-rule: nonzero;"/>
    <path d="M790 650 c-24 -24 -25 -38 -4 -68 18 -27 55 -29 77 -4 23 26 21 58 -5 76 -30 21 -44 20 -68 -4z" style="fill: rgb(255, 0, 0); paint-order: fill; fill-rule: nonzero;"/>
    <path d="M366 454 c-9 -8 -16 -24 -16 -34 0 -43 54 -65 84 -34 31 30 9 84 -34 84 -10 0 -26 -7 -34 -16z" style="fill: rgb(255, 0, 0); paint-order: fill; fill-rule: nonzero;"/>
  </g>
</svg>